# xmcd
#
# Track frame offsets:
#	150
#	13904
#	33254
#	50950
#	69003
#	83767
#	100922
#	116898
#	132136
#	152349
#	169903
#	186741
#	202853
#	222132
#	238987
#	256874
#	276377
#	296648
#	312998
#
# Disc length: 4413 seconds
#
# Revision: 1
# Processed by: cddbd v1.5.2PL0 Copyright (c) Steve Scherf et al.
# Submitted via: EasyCDDAExtractor 10.0.3.1
#
DISCID=1a113b13
DTITLE=София Ротару - Туман
DYEAR=2007
DGENRE=Pop
TTITLE0=Туман
TTITLE1=Я же его любила
TTITLE2=Белый танец
TTITLE3=Ты улетишь
TTITLE4=Москва
TTITLE5=Вишневый сад
TTITLE6=Осенние цветы
TTITLE7=Цветет малина (Дует с Николаем Басковым)
TTITLE8=Любовь не купишь (Совместно с В.Меладзе, А.Данилко и Виа-Гра)
TTITLE9=Небо это я
TTITLE10=Ты позови меня
TTITLE11=Белая зима
TTITLE12=Найди меня
TTITLE13=Дождик
TTITLE14=Белый танец Dance Mix
TTITLE15=Пять минут
TTITLE16=Год за десять
TTITLE17=Чекай
TTITLE18=Одна калина
EXTD=
EXTT0=
EXTT1=
EXTT2=
EXTT3=
EXTT4=
EXTT5=
EXTT6=
EXTT7=
EXTT8=
EXTT9=
EXTT10=
EXTT11=
EXTT12=
EXTT13=
EXTT14=
EXTT15=
EXTT16=
EXTT17=
EXTT18=
PLAYORDER=
